<?xml version="1.0" standalone="no"?><!DOCTYPE svg PUBLIC "-//W3C//DTD SVG 1.1//EN" "http://www.w3.org/Graphics/SVG/1.1/DTD/svg11.dtd"><svg t="1577093638255" class="icon" viewBox="0 0 1024 1024" version="1.1" xmlns="http://www.w3.org/2000/svg" p-id="4081" xmlns:xlink="http://www.w3.org/1999/xlink" width="200" height="200"><defs><style type="text/css"></style></defs><path d="M511.658216 52.364625c-254.320243 0-460.487789 206.167546-460.487789 460.487789s206.167546 460.487789 460.487789 460.487789 460.487789-206.167546 460.487789-460.487789S765.978459 52.364625 511.658216 52.364625zM837.041958 570.014298 569.925271 570.014298l1.048889 268.90031c0.090051 22.992667-18.476817 41.703821-41.469484 41.793872l-32.764218 0.127913c-22.992667 0.090051-41.704844-18.476817-41.793872-41.469484l-1.050935-269.352611L186.274474 570.014298c-23.931039 0-43.51098-19.579941-43.51098-43.51098l0-29.006637c0-23.931039 19.579941-43.51098 43.51098-43.51098l267.168876 0-1.049912-269.193998c-0.090051-22.992667 18.476817-41.704844 41.469484-41.793872l32.764218-0.127913c22.992667-0.090051 41.704844 18.476817 41.793872 41.469484l1.051959 269.6463 267.568988 0c23.931039 0 43.51098 19.579941 43.51098 43.51098l0 29.006637C880.552937 550.434358 860.972996 570.014298 837.041958 570.014298z" p-id="4082"></path></svg>